<svg xmlns="http://www.w3.org/2000/svg" width="42" height="45" viewBox="0 0 42 45">
    <g fill="none" fill-rule="evenodd">
        <g fill="#06529D" fill-rule="nonzero">
            <path d="M12.818 41.662c0 1.844 1.583 3.338 3.535 3.338 1.952 0 3.536-1.494 3.536-3.338V38.45h2.044v3.212c0 1.844 1.584 3.338 3.536 3.338s3.536-1.494 3.536-3.338V38.45h3.23c.973 0 1.763-.746 1.763-1.667V18.917c0-.921-.79-1.666-1.763-1.666h-2.937c-.472 0-.854.362-.854.808 0 .447.382.809.854.809h2.937c.02 0 .04 5.971.056 17.915 0 .018-1.38.035-4.14.05-.471 0-.853.362-.853.808v4.021c0 .95-.818 1.721-1.829 1.721-1.01 0-1.828-.771-1.828-1.72V37.64c0-.446-.383-.808-.854-.808h-3.751c-.472 0-.854.362-.854.808v4.021c0 .95-.818 1.721-1.829 1.721-1.01 0-1.828-.771-1.828-1.72V37.64c0-.446-.382-.808-.854-.808H9.644c-.022 0-.04-5.972-.057-17.916 0-.018 3.966-.034 11.898-.05.472 0 .854-.361.854-.808 0-.446-.382-.808-.854-.808H9.644c-.973 0-1.764.745-1.764 1.666v17.866c0 .921.79 1.667 1.764 1.667h3.174v3.212zM15.344 9.21v-.001-.001.002zm.293-.617a1 1 0 1 1 0 2 1 1 0 0 1 0-2zm12.133 1a1 1 0 1 1-2 0 1 1 0 0 1 2 0zm-2.058-4.482c-1.481-.65-3.1-.991-4.77-.991-1.67 0-3.288.341-4.77.991a.893.893 0 0 1-.46.07.828.828 0 0 1-.33.315c-2.836 1.512-4.871 4.114-5.542 7.14-.007.031.018.06.053.06h1.078c.471 0 .853.363.853.81 0 .446-.382.808-.853.808H9.893c-1.119 0-1.954-.975-1.724-2.011.714-3.22 2.768-6.02 5.65-7.799L12.328 1.96c-.357-.609-.124-1.376.52-1.713.642-.337 1.452-.118 1.809.49l1.53 2.613c1.5-.556 3.107-.846 4.755-.846 1.649 0 3.255.29 4.756.846l1.53-2.612c.357-.609 1.166-.829 1.81-.491.643.337.876 1.104.519 1.713l-1.491 2.545c2.882 1.779 4.935 4.58 5.65 7.799.23 1.036-.605 2.01-1.724 2.01H10.281c-.471 0-.854-.361-.854-.808 0-.446.383-.808.854-.808h21.711c.034 0 .06-.03.053-.062-.671-3.025-2.706-5.627-5.543-7.139a.828.828 0 0 1-.33-.315.893.893 0 0 1-.46-.07zM38.485 18.862c-.98 0-1.778.761-1.778 1.704v10.2c0 .943.798 1.704 1.778 1.704.981 0 1.779-.761 1.779-1.703V20.566c0-.942-.798-1.704-1.779-1.704zm0-1.616c1.927 0 3.486 1.487 3.486 3.32v10.2c0 1.833-1.56 3.32-3.486 3.32-1.926 0-3.485-1.487-3.485-3.32v-10.2c0-1.833 1.559-3.32 3.485-3.32zM3.485 18.862c-.98 0-1.778.761-1.778 1.704v10.2c0 .943.798 1.704 1.778 1.704.981 0 1.779-.761 1.779-1.703V20.566c0-.942-.798-1.704-1.779-1.704zm0-1.616c1.927 0 3.486 1.487 3.486 3.32v10.2c0 1.833-1.56 3.32-3.486 3.32C1.56 34.087 0 32.6 0 30.767v-10.2c0-1.833 1.559-3.32 3.485-3.32z"/>
        </g>
    </g>
</svg>
